<?xml version="1.0" encoding="utf-8"?>
<!-- Generator: Adobe Illustrator 17.0.0, SVG Export Plug-In . SVG Version: 6.00 Build 0)  -->
<!DOCTYPE svg PUBLIC "-//W3C//DTD SVG 1.1//EN" "http://www.w3.org/Graphics/SVG/1.1/DTD/svg11.dtd">
<svg version="1.1" id="Layer_1" xmlns="http://www.w3.org/2000/svg" xmlns:xlink="http://www.w3.org/1999/xlink" x="0px" y="0px"
	 width="1024px" height="768px" viewBox="0 0 1024 768" enable-background="new 0 0 1024 768" xml:space="preserve">
<linearGradient id="SVGID_1_" gradientUnits="userSpaceOnUse" x1="849.4254" y1="453.6689" x2="849.4254" y2="241.0428">
	<stop  offset="0" style="stop-color:#FFFFFF"/>
	<stop  offset="0.7193" style="stop-color:#484848"/>
	<stop  offset="1" style="stop-color:#000000"/>
</linearGradient>
<path opacity="0.2" fill="url(#SVGID_1_)" d="M849.456,453.669c-0.44-0.24-0.814-0.431-1.176-0.643
	c-47.571-27.858-83.54-73.714-98.179-128.632c-2.316-8.688-4.054-17.492-5.247-26.406c-1.204-9.001-1.798-18.041-1.877-27.118
	c-0.013-1.561-0.154-1.307,1.182-2.065c17.875-10.147,36.815-17.57,56.841-22.224c7.393-1.718,14.854-3.041,22.386-3.957
	c10.363-1.261,20.768-1.778,31.205-1.516c5.846,0.147,11.68,0.523,17.498,1.144c29.167,3.11,56.52,11.877,82.081,26.255
	c0.369,0.208,0.727,0.439,1.107,0.624c0.433,0.211,0.627,0.527,0.605,1.01c-0.023,0.508-0.003,1.017-0.011,1.525
	c-0.076,5.255-0.283,10.505-0.722,15.743c-0.63,7.521-1.638,14.991-3.062,22.403c-3.059,15.917-7.863,31.289-14.475,46.088
	c-10.498,23.497-24.795,44.406-42.855,62.74c-13.036,13.234-27.561,24.568-43.557,34.014
	C850.654,452.977,850.103,453.293,849.456,453.669z M752.759,276.064c0,0.5,0,0.879,0,1.258c0.006,7.465,0.493,14.902,1.385,22.311
	c0.805,6.691,1.968,13.321,3.475,19.891c0.266,1.159,0.625,2.266,1.134,3.35c9.121,19.412,30.255,29.735,51.211,24.991
	c15.98-3.617,28.925-15.932,33.371-31.695c1.229-4.359,1.649-8.814,1.787-13.311c0.091-2.97,0.37-5.916,0.927-8.836
	c3.409-17.857,15.353-32.611,32.078-39.611c0.937-0.392,1.893-0.738,2.837-1.115c0.134-0.053,0.348-0.07,0.285-0.315
	c-2.627-0.937-18.412-2.511-27.88-2.698c-20.313-0.4-40.218,2.269-59.685,8.104C779.388,262.674,765.775,268.55,752.759,276.064z
	 M902.659,397.854c0.558-0.263,0.776-0.692,1.056-1.04c4.095-5.086,7.923-10.368,11.47-15.851
	c12.746-19.7,21.638-41.003,26.595-63.943c1.684-7.794,2.871-15.662,3.568-23.607c0.475-5.406,0.74-10.82,0.743-16.247
	c0-0.374-0.038-0.749-0.058-1.12c-0.527-0.31-0.996-0.596-1.473-0.866c-4.17-2.353-8.415-4.564-12.755-6.589
	c-6.258-2.92-12.606-5.622-19.205-7.691c-8.032-2.518-16.146-2.798-24.331-0.824c-23.298,5.618-38.187,28.422-33.776,51.969
	c2.446,13.057,9.45,23.128,20.683,30.24c0.752,0.476,1.52,0.925,2.279,1.389c8.207,5.022,14.638,11.748,19.232,20.198
	c4.832,8.886,7.004,18.394,6.445,28.504C903.035,394.148,902.829,395.914,902.659,397.854z M849.529,443.294
	c0.416-0.236,0.895-0.498,1.365-0.774c12.804-7.53,24.56-16.45,35.344-26.659c0.688-0.651,1.22-1.405,1.645-2.241
	c0.691-1.359,1.395-2.713,2.056-4.087c5.102-10.606,6.196-21.596,2.811-32.892c-6.581-21.961-27.756-34.564-48.958-31.914
	c-6.058,0.757-11.728,2.686-17.014,5.656c-10.104,5.676-20.879,8.015-32.408,6.913c-5.657-0.541-11.078-1.986-16.278-4.269
	c-4.095-1.797-7.897-4.084-11.427-6.828c-0.245-0.191-0.522-0.342-0.98-0.638c0.151,0.504,0.214,0.783,0.317,1.046
	c4.529,11.554,10.139,22.559,16.807,33.025c7.198,11.297,15.484,21.733,24.847,31.313c9.363,9.58,19.609,18.099,30.732,25.563
	C843.283,439.79,848.024,442.685,849.529,443.294z"/>
<linearGradient id="SVGID_2_" gradientUnits="userSpaceOnUse" x1="149.0441" y1="524.3068" x2="149.0441" y2="344.919">
	<stop  offset="0" style="stop-color:#FFFFFF"/>
	<stop  offset="0.7193" style="stop-color:#484848"/>
	<stop  offset="1" style="stop-color:#000000"/>
</linearGradient>
<path opacity="0.2" fill="url(#SVGID_2_)" d="M68.385,348.205h49.941v25.175c2.844-3.748,5.967-7.336,9.364-10.756
	c3.394-3.418,7.172-6.447,11.335-9.097c4.157-2.648,8.758-4.743,13.799-6.289c5.037-1.546,10.73-2.32,17.085-2.32
	c19.054,0,33.783,5.806,44.189,17.413c10.401,11.611,15.606,27.598,15.606,47.967v114.007h-49.939v-97.995
	c0-11.797-2.63-20.705-7.885-26.71c-5.257-6.007-12.707-9.016-22.343-9.016c-9.64,0-17.249,3.009-22.835,9.016
	c-5.584,6.005-8.377,14.912-8.377,26.71v97.995H68.385V348.205z"/>
<linearGradient id="SVGID_3_" gradientUnits="userSpaceOnUse" x1="347.2773" y1="528.2494" x2="347.2773" y2="344.919">
	<stop  offset="0" style="stop-color:#FFFFFF"/>
	<stop  offset="0.7193" style="stop-color:#484848"/>
	<stop  offset="1" style="stop-color:#000000"/>
</linearGradient>
<path opacity="0.2" fill="url(#SVGID_3_)" d="M352.862,528.249c-13.141,0-25.355-2.192-36.632-6.57
	c-11.285-4.38-21.028-10.622-29.241-18.728c-8.215-8.1-14.622-17.685-19.221-28.749c-4.601-11.058-6.901-23.378-6.901-36.962v-0.656
	c0-12.484,2.135-24.313,6.406-35.482c4.273-11.171,10.237-20.914,17.908-29.241c7.664-8.323,16.808-14.893,27.434-19.713
	c10.62-4.816,22.391-7.229,35.319-7.229c14.672,0,27.377,2.628,38.111,7.885c10.73,5.257,19.658,12.32,26.777,21.192
	c7.115,8.87,12.373,19.056,15.77,30.554c3.394,11.499,5.093,23.492,5.093,35.976c0,1.971-0.057,4.056-0.164,6.242
	c-0.113,2.192-0.278,4.492-0.492,6.901H310.48c2.407,11.39,7.391,19.99,14.948,25.791c7.557,5.806,16.921,8.706,28.092,8.706
	c8.321,0,15.77-1.42,22.341-4.271c6.572-2.844,13.357-7.443,20.371-13.799l28.583,25.298c-8.327,10.298-18.398,18.347-30.226,24.15
	C382.761,525.344,368.849,528.249,352.862,528.249z M385.061,422.457c-1.536-11.17-5.478-20.206-11.828-27.105
	c-6.356-6.901-14.786-10.351-25.298-10.351c-10.515,0-19.006,3.4-25.463,10.187c-6.463,6.791-10.679,15.884-12.65,27.269H385.061z"
	/>
<linearGradient id="SVGID_4_" gradientUnits="userSpaceOnUse" x1="599.2295" y1="524.3068" x2="599.2295" y2="344.919">
	<stop  offset="0" style="stop-color:#FFFFFF"/>
	<stop  offset="0.7193" style="stop-color:#484848"/>
	<stop  offset="1" style="stop-color:#000000"/>
</linearGradient>
<path opacity="0.2" fill="url(#SVGID_4_)" d="M464.851,348.205h49.941v25.175c2.844-3.748,5.967-7.336,9.364-10.756
	c3.393-3.418,7.172-6.447,11.335-9.097c4.157-2.648,8.813-4.743,13.963-6.289c5.144-1.546,10.894-2.32,17.249-2.32
	c11.607,0,21.627,2.427,30.062,7.279c8.43,4.856,14.95,11.801,19.549,20.847c7.664-9.261,16.208-16.269,25.627-21.011
	c9.417-4.743,20.15-7.115,32.199-7.115c18.615,0,33.184,5.478,43.696,16.427c10.515,10.957,15.772,27.055,15.772,48.297v114.664
	h-49.941v-97.995c0-11.797-2.52-20.705-7.557-26.71c-5.041-6.007-12.269-9.016-21.684-9.016c-9.421,0-16.814,3.009-22.178,9.016
	c-5.369,6.005-8.049,14.912-8.049,26.71v97.995H574.26v-97.995c0-11.797-2.52-20.705-7.557-26.71
	c-5.041-6.007-12.269-9.016-21.684-9.016c-9.421,0-16.814,3.009-22.178,9.016c-5.369,6.005-8.049,14.912-8.049,26.71v97.995h-49.941
	V348.205z"/>
</svg>
