<?xml version="1.0" encoding="utf-8"?>
<!-- Generator: Adobe Illustrator 17.0.0, SVG Export Plug-In . SVG Version: 6.00 Build 0)  -->
<!DOCTYPE svg PUBLIC "-//W3C//DTD SVG 1.1//EN" "http://www.w3.org/Graphics/SVG/1.1/DTD/svg11.dtd">
<svg version="1.1" id="Layer_1" xmlns="http://www.w3.org/2000/svg" xmlns:xlink="http://www.w3.org/1999/xlink" x="0px" y="0px"
	 width="1024px" height="768px" viewBox="0 0 1024 768" enable-background="new 0 0 1024 768" xml:space="preserve">
<path d="M223.919,529.934c-0.596-0.325-1.103-0.584-1.593-0.871C157.891,491.33,109.171,429.217,89.342,354.83
	c-3.137-11.768-5.491-23.693-7.106-35.767c-1.631-12.192-2.436-24.437-2.542-36.731c-0.018-2.114-0.208-1.771,1.601-2.798
	c24.212-13.745,49.867-23.799,76.991-30.102c10.013-2.327,20.12-4.119,30.322-5.36c14.037-1.707,28.13-2.408,42.267-2.053
	c7.919,0.199,15.82,0.709,23.701,1.549c39.507,4.212,76.558,16.087,111.18,35.563c0.5,0.281,0.985,0.594,1.499,0.845
	c0.586,0.286,0.85,0.714,0.82,1.369c-0.032,0.687-0.004,1.377-0.014,2.066c-0.104,7.118-0.384,14.229-0.978,21.324
	c-0.853,10.187-2.219,20.306-4.148,30.345c-4.143,21.559-10.651,42.381-19.607,62.427c-14.22,31.827-33.585,60.149-58.047,84.982
	c-17.658,17.926-37.331,33.277-58.999,46.072C225.541,528.997,224.796,529.425,223.919,529.934z M92.942,289.366
	c0,0.677,0,1.191,0,1.704c0.008,10.112,0.668,20.185,1.876,30.22c1.091,9.063,2.665,18.044,4.706,26.943
	c0.36,1.57,0.846,3.07,1.536,4.538c12.355,26.294,40.98,40.276,69.366,33.85c21.645-4.9,39.179-21.581,45.201-42.932
	c1.665-5.904,2.233-11.939,2.42-18.03c0.123-4.022,0.501-8.013,1.256-11.969c4.617-24.188,20.795-44.172,43.45-53.653
	c1.269-0.531,2.565-1,3.843-1.51c0.181-0.072,0.471-0.095,0.386-0.427c-3.558-1.269-24.94-3.402-37.763-3.654
	c-27.514-0.542-54.476,3.073-80.844,10.977C129.012,271.23,110.573,279.188,92.942,289.366z M295.983,454.332
	c0.756-0.356,1.051-0.937,1.431-1.408c5.547-6.89,10.731-14.044,15.536-21.47c17.264-26.684,29.309-55.539,36.023-86.612
	c2.281-10.558,3.888-21.215,4.833-31.975c0.643-7.323,1.003-14.656,1.006-22.007c0-0.507-0.052-1.014-0.079-1.517
	c-0.714-0.421-1.349-0.808-1.996-1.173c-5.649-3.187-11.398-6.182-17.276-8.925c-8.477-3.955-17.074-7.616-26.013-10.418
	c-10.879-3.411-21.87-3.79-32.956-1.117c-31.558,7.609-51.725,38.498-45.751,70.392c3.313,17.686,12.8,31.328,28.016,40.96
	c1.018,0.644,2.059,1.253,3.086,1.882c11.116,6.803,19.827,15.913,26.051,27.358c6.545,12.036,9.487,24.915,8.73,38.609
	C296.492,449.312,296.214,451.705,295.983,454.332z M224.018,515.882c0.564-0.319,1.213-0.674,1.85-1.049
	c17.343-10.2,33.267-22.281,47.874-36.11c0.932-0.882,1.653-1.903,2.229-3.035c0.937-1.841,1.89-3.675,2.785-5.536
	c6.911-14.367,8.393-29.252,3.808-44.552c-8.914-29.747-37.595-46.817-66.314-43.228c-8.206,1.026-15.885,3.638-23.045,7.66
	c-13.686,7.688-28.281,10.856-43.897,9.363c-7.662-0.732-15.005-2.69-22.048-5.782c-5.547-2.435-10.697-5.532-15.478-9.249
	c-0.333-0.259-0.707-0.463-1.327-0.865c0.205,0.682,0.29,1.06,0.429,1.416c6.134,15.651,13.733,30.557,22.765,44.732
	c9.75,15.302,20.974,29.438,33.655,42.414c12.682,12.976,26.561,24.515,41.627,34.625
	C215.557,511.135,221.979,515.057,224.018,515.882z"/>
<path fill="#F7A800" d="M92.942,289.366c17.631-10.178,36.07-18.136,55.435-23.941c26.368-7.904,53.331-11.519,80.844-10.977
	c12.823,0.253,34.205,2.385,37.763,3.654c0.086,0.332-0.205,0.354-0.386,0.427c-1.278,0.51-2.574,0.979-3.843,1.51
	c-22.655,9.481-38.833,29.466-43.45,53.653c-0.755,3.955-1.133,7.946-1.256,11.969c-0.187,6.091-0.755,12.125-2.42,18.03
	c-6.022,21.351-23.557,38.032-45.201,42.932c-28.386,6.426-57.012-7.557-69.366-33.85c-0.69-1.468-1.176-2.968-1.536-4.538
	c-2.041-8.899-3.615-17.88-4.706-26.943c-1.208-10.035-1.869-20.108-1.876-30.22C92.941,290.557,92.942,290.043,92.942,289.366z"/>
<path fill="#67B2E8" d="M295.983,454.332c0.231-2.627,0.509-5.019,0.642-7.42c0.757-13.695-2.185-26.574-8.73-38.609
	c-6.224-11.445-14.935-20.555-26.051-27.358c-1.028-0.629-2.069-1.237-3.086-1.882c-15.216-9.633-24.703-23.275-28.016-40.96
	c-5.975-31.894,14.193-62.783,45.751-70.392c11.086-2.673,22.077-2.294,32.956,1.117c8.938,2.802,17.536,6.463,26.013,10.418
	c5.878,2.742,11.627,5.738,17.276,8.925c0.647,0.365,1.282,0.752,1.996,1.173c0.027,0.503,0.079,1.01,0.079,1.517
	c-0.004,7.351-0.363,14.684-1.006,22.007c-0.945,10.76-2.552,21.418-4.833,31.975c-6.713,31.073-18.759,59.928-36.023,86.612
	c-4.805,7.426-9.989,14.58-15.536,21.47C297.034,453.395,296.739,453.976,295.983,454.332z"/>
<path fill="#00C4B3" d="M224.018,515.882c-2.039-0.825-8.461-4.747-15.089-9.194c-15.066-10.111-28.945-21.649-41.627-34.625
	c-12.682-12.976-23.905-27.111-33.655-42.414c-9.032-14.175-16.631-29.082-22.765-44.732c-0.14-0.356-0.224-0.734-0.429-1.416
	c0.62,0.402,0.995,0.606,1.327,0.865c4.781,3.717,9.932,6.815,15.478,9.249c7.044,3.092,14.386,5.05,22.048,5.782
	c15.616,1.492,30.211-1.675,43.897-9.363c7.16-4.022,14.839-6.635,23.045-7.66c28.719-3.589,57.4,13.481,66.314,43.228
	c4.585,15.3,3.103,30.186-3.808,44.552c-0.895,1.861-1.849,3.695-2.785,5.536c-0.576,1.132-1.297,2.153-2.229,3.035
	c-14.607,13.828-30.53,25.91-47.874,36.11C225.231,515.208,224.582,515.563,224.018,515.882z"/>
<g>
	<path d="M434.225,318.405h38.158v19.235c2.173-2.864,4.559-5.605,7.155-8.218c2.593-2.611,5.48-4.926,8.661-6.95
		c3.176-2.023,6.692-3.624,10.543-4.805c3.848-1.181,8.198-1.772,13.054-1.772c14.559,0,25.813,4.437,33.763,13.305
		c7.947,8.872,11.924,21.087,11.924,36.65v87.109h-38.156v-74.875c0-9.014-2.009-15.82-6.025-20.408
		c-4.017-4.59-9.709-6.889-17.071-6.889c-7.365,0-13.18,2.299-17.447,6.889c-4.266,4.588-6.401,11.394-6.401,20.408v74.875h-38.158
		V318.405z"/>
	<path d="M651.585,455.97c-10.04,0-19.373-1.675-27.989-5.02c-8.622-3.347-16.067-8.116-22.342-14.31
		c-6.277-6.189-11.172-13.512-14.686-21.966c-3.516-8.449-5.272-17.862-5.272-28.241v-0.502c0-9.539,1.632-18.577,4.895-27.111
		c3.265-8.536,7.822-15.98,13.683-22.342c5.856-6.359,12.842-11.379,20.961-15.062c8.115-3.68,17.108-5.523,26.986-5.523
		c11.211,0,20.918,2.008,29.119,6.025c8.198,4.017,15.02,9.413,20.46,16.192c5.437,6.777,9.454,14.56,12.05,23.345
		c2.593,8.786,3.892,17.95,3.892,27.488c0,1.506-0.043,3.099-0.125,4.769c-0.087,1.675-0.212,3.432-0.376,5.272h-93.636
		c1.839,8.703,5.647,15.274,11.421,19.706c5.774,4.437,12.929,6.652,21.464,6.652c6.358,0,12.05-1.085,17.07-3.263
		c5.022-2.173,10.206-5.687,15.565-10.543l21.839,19.33c-6.362,7.868-14.057,14.019-23.094,18.452
		C674.43,453.751,663.8,455.97,651.585,455.97z M676.187,375.138c-1.173-8.535-4.186-15.439-9.037-20.71
		c-4.856-5.272-11.297-7.909-19.33-7.909c-8.034,0-14.522,2.598-19.455,7.783c-4.938,5.189-8.159,12.136-9.666,20.835H676.187z"/>
	<path d="M737.152,318.405h38.158v19.235c2.173-2.864,4.559-5.605,7.155-8.218c2.593-2.611,5.48-4.926,8.661-6.95
		c3.177-2.023,6.734-3.624,10.669-4.805c3.93-1.181,8.324-1.772,13.18-1.772c8.868,0,16.525,1.854,22.969,5.562
		c6.441,3.711,11.423,9.017,14.937,15.929c5.856-7.076,12.384-12.43,19.581-16.054c7.195-3.624,15.396-5.437,24.602-5.437
		c14.223,0,25.354,4.186,33.387,12.551c8.034,8.372,12.051,20.672,12.051,36.902v87.611h-38.158v-74.875
		c0-9.014-1.926-15.82-5.774-20.408c-3.851-4.59-9.375-6.889-16.568-6.889c-7.198,0-12.847,2.299-16.946,6.889
		c-4.102,4.588-6.15,11.394-6.15,20.408v74.875h-38.156v-74.875c0-9.014-1.926-15.82-5.774-20.408
		c-3.851-4.59-9.375-6.889-16.568-6.889c-7.198,0-12.847,2.299-16.946,6.889c-4.102,4.588-6.15,11.394-6.15,20.408v74.875h-38.158
		V318.405z"/>
</g>
</svg>
